<?xml version="1.0" standalone="no"?>
<!DOCTYPE svg PUBLIC "-//W3C//DTD SVG 20010904//EN"
 "http://www.w3.org/TR/2001/REC-SVG-20010904/DTD/svg10.dtd">
<svg version="1.0" xmlns="http://www.w3.org/2000/svg"
 width="700.000000pt" height="700.000000pt" viewBox="0 0 700.000000 700.000000"
 preserveAspectRatio="xMidYMid meet">
<metadata>
Created by potrace 1.11, written by Peter Selinger 2001-2013
</metadata>
<g transform="translate(0.000000,700.000000) scale(0.100000,-0.100000)"
fill="#000000" stroke="none">
<path d="M1754 6525 c-10 -8 -182 -297 -314 -530 -10 -16 -42 -73 -72 -125
-30 -52 -133 -230 -228 -395 -94 -165 -180 -308 -190 -318 -19 -20 -20 -20
-151 -17 -133 3 -216 -27 -282 -99 -47 -52 -68 -102 -72 -171 -4 -85 44 -195
122 -280 38 -41 37 -45 -59 -210 -30 -52 -157 -272 -282 -487 l-226 -393 298
-517 c165 -285 342 -592 394 -683 53 -91 105 -181 116 -200 10 -19 43 -75 72
-125 29 -49 61 -106 72 -125 11 -19 44 -75 73 -125 29 -49 63 -108 75 -130 12
-22 97 -168 188 -325 91 -157 175 -303 188 -325 12 -22 78 -137 147 -255 l124
-215 1753 0 1754 0 119 205 c65 113 130 225 143 250 14 25 29 52 34 60 30 49
125 214 345 595 137 237 313 543 393 680 80 138 154 266 165 285 10 19 138
241 283 492 l264 457 -279 484 c-321 556 -309 536 -305 562 2 11 30 61 62 110
32 50 64 108 70 130 33 119 -28 258 -138 315 -60 31 -120 42 -229 42 -57 -1
-113 3 -122 9 -10 5 -62 86 -116 181 -395 688 -677 1175 -688 1186 -9 11 -337
13 -1750 15 -1146 1 -1742 -1 -1751 -8z m3666 -587 c416 -721 450 -782 450
-800 0 -28 -37 -54 -98 -68 -278 -62 -762 -279 -1322 -593 -260 -146 -290
-159 -290 -123 0 7 34 58 76 112 42 54 119 163 171 241 133 201 139 206 329
282 55 22 149 62 209 89 170 76 197 88 235 102 47 18 60 29 60 51 0 32 -26 29
-190 -22 -69 -22 -156 -50 -195 -63 -38 -13 -117 -38 -175 -56 -226 -70 -228
-71 -295 -155 -22 -28 -80 -97 -129 -155 -49 -58 -109 -130 -135 -159 -90
-107 -121 -142 -121 -138 0 2 8 19 17 38 24 46 24 162 0 206 -24 45 -61 79
-110 104 -73 37 -73 38 -3 79 118 69 215 150 390 324 61 60 126 116 145 125
66 30 151 93 151 112 0 4 -7 14 -15 22 -16 17 -55 14 -150 -10 -97 -24 -95
-22 -260 -207 -30 -33 -107 -129 -150 -186 -64 -85 -56 -77 -165 -139 l-95
-53 -71 17 c-125 29 -231 26 -426 -12 -35 -7 -196 93 -243 152 -18 22 -69 85
-113 140 -44 55 -115 137 -158 182 -74 76 -84 83 -149 101 -82 24 -148 32
-166 21 -38 -23 4 -71 112 -129 39 -20 108 -80 215 -186 123 -121 186 -174
280 -237 l121 -80 -56 -30 c-71 -37 -92 -57 -119 -111 -26 -51 -28 -113 -7
-182 8 -27 15 -50 15 -52 0 -2 -96 111 -214 251 -118 139 -225 260 -238 269
-12 8 -79 33 -148 55 -323 104 -567 181 -586 186 -32 7 -48 -7 -40 -34 5 -21
56 -45 350 -168 l345 -145 142 -210 c78 -116 164 -241 191 -278 28 -37 48 -72
46 -77 -5 -14 -71 12 -136 52 -140 86 -654 355 -862 451 -228 106 -443 184
-648 236 -52 13 -72 45 -53 86 6 14 89 159 183 322 94 164 183 318 197 343 14
25 91 159 171 297 l145 252 1665 0 1665 0 255 -442z m745 -929 c10 -15 -12
-35 -150 -130 -66 -46 -146 -101 -177 -123 l-58 -40 -37 18 c-46 22 -173 115
-173 126 0 14 103 48 314 104 209 55 270 64 281 45z m-5300 -89 c104 -99 135
-118 263 -159 98 -33 270 -105 286 -121 17 -17 -35 -16 -214 5 -19 2 -78 7
-130 11 -196 14 -184 17 -258 -45 -42 -33 -45 -34 -70 -20 -32 17 -116 119
-143 172 -30 58 -33 103 -8 154 21 43 38 58 94 80 65 25 80 19 180 -77z m150
72 c262 -62 639 -193 673 -235 7 -8 16 -34 21 -58 4 -24 9 -48 11 -54 15 -59
-37 -46 -325 80 -71 31 -175 72 -230 91 -116 40 -208 89 -249 133 -53 55 -18
70 99 43z m5350 -18 c13 -8 32 -33 43 -55 30 -61 16 -125 -46 -207 -37 -48
-45 -52 -167 -67 -27 -3 -68 -11 -90 -16 -46 -13 -95 -6 -182 22 -66 22 -79
40 -42 60 12 6 99 68 193 138 94 70 180 133 191 139 24 13 68 7 100 -14z
m-838 -171 c107 -73 133 -98 130 -122 -2 -29 -32 -39 -207 -71 -165 -31 -227
-48 -294 -81 -87 -44 -119 -70 -251 -203 -116 -116 -199 -176 -218 -157 -13
13 81 311 106 339 22 24 232 129 482 242 212 95 195 92 252 53z m-1873 -12
c83 -20 203 -71 230 -98 19 -19 26 -36 26 -65 0 -36 -29 -110 -48 -122 -5 -3
-33 6 -63 20 -179 84 -406 85 -588 3 -35 -16 -65 -29 -67 -29 -2 0 -15 20 -29
43 -33 57 -34 118 -3 147 35 32 124 71 218 95 94 24 236 27 324 6z m-1833 -84
c35 -24 46 -49 48 -109 1 -30 -3 -38 -16 -38 -39 1 -78 55 -85 118 -7 60 1 64
53 29z m324 -160 c520 -283 600 -323 694 -346 47 -12 87 -19 89 -16 8 7 32
-16 32 -30 0 -23 -33 -21 -105 6 -64 25 -319 92 -390 102 -120 18 -245 41
-254 46 -5 4 -13 22 -16 40 -9 52 -32 89 -77 121 -22 17 -45 30 -49 30 -5 0
-33 9 -63 20 -55 21 -69 39 -80 103 -4 21 -1 27 13 27 9 0 102 -46 206 -103z
m3700 68 c30 -13 66 -27 80 -31 37 -9 31 -29 -23 -82 -27 -26 -77 -80 -113
-120 l-64 -74 -79 7 c-43 3 -95 8 -115 11 -65 8 -134 13 -306 19 -201 8 -204
8 -179 36 45 50 201 123 304 143 19 3 46 9 60 12 14 3 38 7 54 9 61 9 231 57
265 75 47 25 52 25 116 -5z m-4704 -30 c90 -17 292 -21 331 -6 33 12 119 6
154 -12 37 -19 203 -71 274 -87 115 -25 164 -45 197 -79 58 -60 39 -85 -61
-82 -28 0 -62 3 -76 6 -13 2 -42 7 -65 10 -22 4 -51 8 -65 10 -14 2 -59 7
-100 10 -41 4 -97 9 -125 11 -27 3 -114 7 -192 8 -152 4 -241 -10 -335 -52
-27 -11 -58 -19 -70 -17 -12 3 -49 35 -82 72 -34 38 -73 81 -89 97 -15 16 -27
36 -25 44 2 9 23 31 48 50 l44 34 109 -7 c60 -3 117 -8 128 -10z m5104 -5 c9
-14 -14 -49 -61 -91 -20 -19 -60 -59 -88 -89 -114 -123 -123 -130 -147 -126
-13 3 -36 5 -50 5 -15 1 -37 9 -50 20 -22 17 -22 20 -7 42 27 38 160 175 190
194 60 38 199 67 213 45z m-2639 -125 c142 -22 264 -112 296 -219 5 -17 9
-172 9 -344 -1 -287 -2 -315 -20 -350 -50 -98 -159 -125 -274 -68 -266 130
-389 311 -388 571 1 315 126 450 377 410z m1060 -118 c-13 -45 -30 -102 -37
-126 -14 -46 -36 -67 -83 -75 -48 -9 -56 6 -39 72 35 141 60 183 131 224 45
27 47 27 50 7 2 -11 -8 -57 -22 -102z m1665 20 c15 -23 106 -181 204 -352 98
-170 204 -355 236 -409 l57 -99 -22 -36 c-23 -36 -58 -97 -306 -526 -70 -121
-171 -296 -225 -390 -54 -93 -106 -183 -115 -200 -10 -16 -109 -190 -222 -385
-113 -195 -213 -368 -222 -385 -9 -16 -29 -51 -44 -76 -15 -26 -135 -234 -267
-462 l-240 -417 -1665 0 -1665 0 -165 287 c-91 157 -178 309 -194 337 -15 28
-51 89 -79 136 -27 47 -61 105 -75 130 -14 25 -158 275 -320 555 -162 281
-404 701 -539 935 -135 234 -255 441 -268 460 -14 23 -19 40 -14 50 248 435
472 821 489 843 36 46 68 37 131 -35 160 -186 397 -417 549 -537 180 -142 378
-220 645 -256 22 -3 87 -5 145 -5 261 2 412 44 665 188 86 49 136 65 151 50
28 -27 -20 -68 -290 -243 -148 -96 -284 -186 -302 -200 -18 -14 -51 -56 -73
-93 -73 -125 -93 -147 -162 -174 -87 -35 -323 -123 -439 -163 -101 -36 -123
-53 -101 -79 16 -19 2 -21 262 39 112 26 211 48 219 50 147 32 208 49 224 64
10 10 50 65 90 121 l71 103 110 56 c61 31 181 94 269 139 87 46 165 81 172 78
8 -3 14 -19 14 -36 0 -25 -18 -49 -99 -133 -125 -128 -136 -142 -248 -301 -51
-72 -132 -187 -180 -255 -151 -213 -141 -184 -139 -393 2 -141 -1 -188 -13
-221 -9 -24 -116 -192 -239 -375 -122 -182 -223 -342 -225 -354 -1 -18 4 -24
23 -26 19 -2 32 7 55 35 76 98 423 512 458 548 22 22 52 62 67 89 l28 49 2
201 c1 194 2 202 25 237 28 43 168 189 181 189 31 -1 35 -17 27 -111 -9 -102
5 -265 33 -374 80 -318 233 -583 498 -862 130 -138 213 -170 309 -122 50 25
222 198 311 313 156 200 268 426 324 651 25 99 31 154 37 320 3 71 7 140 10
153 11 45 53 22 129 -71 20 -24 36 -49 36 -54 0 -6 6 -16 14 -22 11 -9 33 -70
42 -113 1 -5 2 -84 3 -177 l1 -170 148 -179 c81 -98 208 -253 282 -343 163
-198 154 -189 178 -189 51 0 33 33 -204 388 -130 195 -238 366 -240 381 -2 14
-4 107 -4 206 -1 134 -5 186 -16 207 -13 25 -111 170 -153 224 -9 12 -22 30
-29 40 -220 321 -326 460 -393 514 -94 76 -101 89 -75 125 13 18 20 16 147
-49 303 -155 385 -200 411 -224 16 -14 58 -70 95 -123 38 -54 74 -100 81 -103
10 -5 213 -52 298 -71 11 -2 71 -16 134 -31 102 -23 152 -35 226 -50 28 -5 52
22 38 43 -5 8 -144 64 -309 123 l-300 108 -72 113 c-39 63 -80 120 -90 127
-10 7 -130 86 -268 177 -344 226 -330 215 -330 250 0 49 29 39 259 -85 123
-67 243 -103 416 -125 19 -3 78 -5 130 -6 289 -2 553 79 761 232 46 34 86 65
89 68 3 3 39 36 80 72 89 79 282 275 410 416 50 56 97 100 103 97 7 -2 24 -23
38 -47z m-1861 -32 c0 -30 -47 -182 -60 -195 -10 -10 -43 -21 -76 -25 -32 -4
-66 -8 -75 -10 -30 -6 -142 -18 -179 -19 -35 -1 -35 -1 -38 46 -4 54 5 62 82
72 81 10 129 29 301 120 31 17 45 20 45 11z m-2929 -20 c58 -3 126 -8 150 -10
24 -2 85 -7 134 -10 50 -3 108 -7 130 -10 22 -2 67 -7 100 -10 33 -3 71 -7 85
-10 14 -2 48 -7 75 -10 47 -6 63 -8 153 -20 20 -3 62 -10 92 -15 30 -5 78 -12
105 -16 57 -7 97 -23 103 -41 5 -16 -35 -17 -109 -3 -54 11 -70 13 -144 25
-191 29 -478 39 -638 22 -127 -13 -337 -64 -422 -102 -96 -43 -101 -44 -131
-25 -31 19 -154 146 -154 159 0 32 97 68 215 80 64 6 90 6 256 -4z m3839 -30
c117 -9 322 -31 365 -39 11 -2 48 -7 83 -11 41 -5 65 -12 69 -22 3 -8 -15 -34
-46 -65 l-52 -51 -91 -3 c-102 -4 -208 -28 -318 -74 -201 -85 -286 -96 -455
-60 -197 42 -387 79 -433 85 -49 6 -76 21 -51 29 8 2 50 7 94 10 154 10 273
65 380 176 l40 42 175 -6 c96 -3 204 -8 240 -11z m-3341 -140 c6 -6 7 -15 3
-21 -4 -7 -72 -53 -152 -104 -80 -50 -176 -118 -215 -149 -93 -76 -90 -74
-127 -55 -74 38 -228 163 -228 185 0 9 14 23 33 32 59 27 226 76 312 91 17 3
41 8 55 11 14 3 59 8 100 11 41 3 76 7 77 8 8 7 134 -1 142 -9z m356 -19 c17
-3 77 -10 135 -16 58 -7 116 -14 130 -15 14 -2 57 -7 95 -11 39 -4 77 -8 85
-10 8 -1 32 -3 52 -3 20 -1 44 -8 52 -17 19 -19 22 -107 4 -121 -18 -13 -482
-5 -673 12 -16 1 -75 6 -130 10 -55 4 -111 9 -125 10 -14 2 -31 4 -37 4 -52 4
71 121 164 156 36 14 156 14 248 1z m1990 -120 c171 -35 175 -35 210 -41 61
-11 232 -47 285 -60 99 -25 133 -29 264 -27 l129 1 45 -44 c24 -24 42 -50 40
-57 -9 -27 -203 -88 -338 -107 -36 -5 -108 -8 -160 -7 l-94 1 -29 40 c-16 22
-48 69 -71 105 -36 57 -46 66 -81 73 -117 23 -172 40 -279 88 -70 31 -112 55
-105 59 15 10 26 8 184 -24z m1323 19 c16 -16 -36 -67 -142 -137 -65 -43 -122
-78 -127 -78 -11 0 -109 99 -109 110 0 14 43 33 150 68 145 48 207 58 228 37z
m-1495 -80 c123 -62 261 -112 327 -118 42 -4 47 -7 88 -67 48 -70 45 -83 -18
-74 -80 12 -188 55 -320 129 -52 30 -126 64 -165 76 -38 13 -73 28 -77 33 -10
14 -10 60 -1 69 16 17 66 3 166 -48z m-2158 -39 c11 -2 45 -7 75 -10 173 -21
189 -31 129 -83 -54 -47 -93 -93 -106 -125 l-13 -31 -83 6 c-81 7 -253 37
-312 55 -56 18 -85 35 -85 51 1 32 135 124 204 142 28 7 143 4 191 -5z m705
-42 c24 -5 24 -6 -15 -30 -131 -82 -345 -161 -457 -171 -88 -8 -89 5 -8 85 69
69 130 102 216 117 61 10 217 10 264 -1z m1064 -548 c65 -11 189 -88 169 -106
-4 -5 -44 -11 -88 -15 -44 -4 -93 -9 -110 -11 -16 -2 -111 -6 -210 -9 -99 -4
-186 -8 -192 -10 -24 -8 -13 9 40 57 60 55 116 85 178 96 47 8 155 7 213 -2z
m255 -278 c12 -40 14 -49 27 -114 l5 -30 -93 -17 c-51 -10 -109 -19 -128 -21
-19 -3 -55 -7 -80 -10 -176 -22 -628 -25 -644 -4 -4 4 41 95 73 148 l27 45 85
1 c254 5 479 18 589 34 30 4 71 8 91 9 34 1 37 -1 48 -41z m52 -345 c1 -5 3
-41 4 -81 l2 -72 -81 -25 c-45 -13 -94 -26 -111 -28 -16 -3 -41 -8 -55 -11
-163 -39 -598 -44 -767 -10 l-33 6 6 81 c3 45 7 85 10 88 2 4 39 4 81 1 102
-8 424 -8 538 0 88 7 255 29 345 47 61 12 60 12 61 4z m-41 -453 c0 -17 -47
-170 -55 -178 -5 -5 -201 -51 -245 -56 -25 -4 -70 -10 -100 -14 -64 -8 -417
-8 -426 0 -6 6 -8 72 -6 149 l2 45 178 -2 c162 -2 218 1 382 21 66 8 242 43
248 50 11 11 22 4 22 -15z m-220 -487 c0 -3 -24 -39 -54 -78 -46 -61 -61 -74
-98 -84 -70 -19 -88 -22 -191 -28 -111 -7 -115 -5 -166 76 -57 90 -62 86 112
85 83 0 172 3 197 7 25 4 74 10 110 13 35 4 66 9 69 12 7 6 21 5 21 -3z"/>
</g>
</svg>
