<svg id="Layer_1" data-name="Layer 1" xmlns="http://www.w3.org/2000/svg" width="200" height="200" viewBox="0 0 200 200"><defs><style>.cls-1{fill:#164556;}</style></defs><path class="cls-1" d="M183.534,71.471a2.224,2.224,0,0,1,.176-2.492,22.1,22.1,0,0,0,2.955-4.524,11.928,11.928,0,0,0,.6-1.951c.042-.214.064-.45.085-.665a7.248,7.248,0,0,0,0-1.35,8.064,8.064,0,0,0-.257-1.372c-.086-.236-.172-.45-.258-.686a7.563,7.563,0,0,0-.343-.751,10.108,10.108,0,0,0-.835-1.329c-2.559-3.328-7.035-3.6-11.149-3.125a2.2,2.2,0,0,1-2.14-1.106L150.005,13.388H50.016l-.189.327-.53.917-.83,1.438-1.09,1.889L46.065,20.23l-1.492,2.584L42.94,25.642l-1.733,3-1.8,3.108L37.6,34.9l-1.8,3.112-1.738,3.009-1.638,2.838-1.5,2.6L29.6,48.741,28.5,50.65c-.129.224-.471.841-.8,1.442a2.336,2.336,0,0,1-2.336,1.192c-.918-.114-1.95-.234-2.231-.234h-.558a16.626,16.626,0,0,0-2.079.107,11.961,11.961,0,0,0-1.972.429,6.159,6.159,0,0,0-1.479.579,7.716,7.716,0,0,0-1.158.685c-.193.151-.386.3-.558.451-.171.171-.342.321-.514.514a8.146,8.146,0,0,0-1.651,2.616,6.989,6.989,0,0,0-.536,2.722,7.235,7.235,0,0,0,.129,1.372,11.2,11.2,0,0,0,1.8,4.16c.107.193.235.364.364.557.146.213,1.011,1.276,1.646,2.052a1.576,1.576,0,0,1,.142,1.791L0,100l50.016,86.612h99.989L200,100ZM178.6,57.7a2.373,2.373,0,0,1,2.316-.322,4.3,4.3,0,0,1,2.443,2.487c.815,1.972-.45,4.138-2.036,6.131a2.535,2.535,0,0,1-1.587.9c-.878.107-1.779.214-2.637.343-.664.107-1.329.171-1.972.3a7.131,7.131,0,0,1-2.766.45c-.493-.064-5.488-1.243-5.1-1.972a1.686,1.686,0,0,1,.536-.407c.408-.3.815-.515,1.222-.815C169.021,64.8,175.024,60.36,178.6,57.7ZM116.111,86c1.629-.172,3.988,1.522,5.424,2.165,2.872,1.329,5.81,2.7,8.875,2.851a.83.83,0,0,1,.815.408,17.642,17.642,0,0,1,1.908,2.658c.322.75.343.879-.407.965-1.437.171-3.473-.665-4.824-1.158a27.222,27.222,0,0,1-5.488-2.723,20.235,20.235,0,0,0-5.96-2.487,1.693,1.693,0,0,1-.622-.235,1.4,1.4,0,0,1-.407-1.244C115.468,86.387,115.3,86.065,116.111,86Zm-.686-4.4a1.2,1.2,0,0,1,1.072-1.265c.643-.172,1.308-.043,1.951-.193a21.369,21.369,0,0,0,5.059-1.844l3.58-1.951a.434.434,0,0,1,.643.515c-.493,1.586-.943,3.194-1.329,4.8a1.059,1.059,0,0,1-.857.772c-1.694.236-3.43.493-5.124.729-1.158.15-2.316.321-3.473.471C115.189,83.9,115.446,83.149,115.425,81.606Zm17.408,8.9a3.261,3.261,0,0,0-.879-.965,2.868,2.868,0,0,0-1.522-.343c-2.616-.129-5.424-1.436-8.126-2.68a20.134,20.134,0,0,1-2.572-1.179c.428-.472,1.565-.364,2.122-.236.858.236,1.715.386,2.573.558,1.887.407,3.773.75,5.66,1.114,3.258.644,6.6,1.287,9.176,1.908a29.368,29.368,0,0,0,6.453.987c.471,0,.964-.043,1.457-.086,1.479-.15,2.659-.536,4.03.364a6.469,6.469,0,0,1,1.758,1.823.759.759,0,0,1-.278,1.136,35.914,35.914,0,0,1-15.951,2.744,1.568,1.568,0,0,1-1.178-.708Zm19.316-2.123c-.215-.836,4.095-1.908,4.545-2.058a22.737,22.737,0,0,1,3.859-1.157c.922-.151,3.323-.579,2.486.836-1.007,1.715-3.322,2.594-4.866,3.751a12.25,12.25,0,0,1-2.379,1.544c-.708.322-.451.343-.987-.107a13.675,13.675,0,0,1-.943-1.244C153.521,89.517,152.277,88.916,152.149,88.38Zm3.966-3.794c-1.093.364-2.122.814-3.152,1.265a21.7,21.7,0,0,1-6,1.908,21.76,21.76,0,0,1-7.289-.879c-2.594-.622-5.96-1.265-9.24-1.908-.643-.129-1.308-.15-1.951-.258-.429-.064-1.287,0-1.629-.364-.429-.472.9-.622,1.286-.643a19.324,19.324,0,0,0,8.425-1.78,18.747,18.747,0,0,0,4.931-4.223,1.036,1.036,0,0,1,.772-.343,186.323,186.323,0,0,1,25.876,2.144.555.555,0,0,1,.322.943c-.836.858-1.673,1.715-2.53,2.53a1.385,1.385,0,0,1-1.029.364A23.142,23.142,0,0,0,156.115,84.586Zm4.974-17.473a42.354,42.354,0,0,1-4.845,1.072c-3,.558-6.174,1.051-8.919,2.38a23.272,23.272,0,0,0-7.117,5.7,20.474,20.474,0,0,1-3.688,3.644,9.27,9.27,0,0,1-2.337,1.093.472.472,0,0,1-.45-.042c-.107-.108-.064-.3-.021-.429.686-2.23,1.329-4.416,2.015-6.646a15.539,15.539,0,0,1,.622-1.93,3.212,3.212,0,0,1,.686-.921,5.909,5.909,0,0,1,1.694-1.051c2.208-1.093,4.459-2.187,6.688-3.259,3.28-1.607,6.646-3.13,10.033-4.5a2.371,2.371,0,0,1,2.466.451,38.33,38.33,0,0,0,3.43,2.615A1.011,1.011,0,0,1,161.089,67.113Zm2.4,1.072c.515-.236,1.008-.707,1.587-.75.793-.064,1.565.557,2.25.879a19.823,19.823,0,0,0,2.144.793c.579.193.986.45.472,1.008-.408.428-.879.75-1.286,1.157-.944.944-1.844,1.93-2.745,2.916-.707.772-1.822,2.873-3.065,2.723-3.173-.386-6.389-.686-9.583-.9q-2.412-.16-4.888-.257c-.943-.064-1.951.043-2.937,0a3.438,3.438,0,0,1-1.544-.214c-.364-.258-.064-.472.236-.751.364-.321.772-.579,1.158-.879,3.194-2.422,7.5-3.215,11.276-3.9A34.58,34.58,0,0,0,163.49,68.185Zm-30.271,8.061c-.365,1.286-.729,2.594-1.051,3.923a2.06,2.06,0,0,1-1.543,1.544c-.407.064-.986.15-.986.15l-.429.064a.7.7,0,0,1-.772-.857,39.364,39.364,0,0,1,1.608-5.36c.021-.021.043-.064.064-.086a4.873,4.873,0,0,1,1.78-1.95c.107-.086,2.293-1.351,2.293-.965A14.684,14.684,0,0,1,133.219,76.246Zm34.3,1.286a1,1,0,0,1-.6-1.693l3.087-3.3a9.315,9.315,0,0,1,3.259-2.615c.836-.322,5.188-1.8,5.231-.558.085,1.244-2.615,2.98-3.366,3.816-1.243,1.415-2.508,2.83-3.773,4.224a1.729,1.729,0,0,1-1.479.493C169.085,77.79,168.313,77.661,167.52,77.532Zm7.912-20.966c2.465.257-1.394,2.551-2.08,3.022-1.844,1.2-3.666,2.444-5.424,3.731-.772.557-1.544,1.157-2.358,1.672a1.02,1.02,0,0,1-1.072.043,32.511,32.511,0,0,1-5.21-3.58.448.448,0,0,1,.129-.751,71.412,71.412,0,0,1,8.1-2.337c1.458-.343,2.873-.814,4.331-1.179A11.43,11.43,0,0,1,175.432,56.566ZM52.481,17.676h95.058L167.5,52.264a1.705,1.705,0,0,1-1.11,2.509,78.318,78.318,0,0,0-10.144,3.079c-9.926,3.8-19.295,8.9-28.363,13.785-1.5.836-2.981,1.736-4.5,2.551a15.951,15.951,0,0,1-3.365,1.8c-.708.171-1.287.343-1.115-.536a4.446,4.446,0,0,1,1.136-1.758,109.2,109.2,0,0,0,6.5-9.09c1.436-2.1,2.68-4.545,5.167-5.638,2.744-1.222,5.552-2.23,8.275-3.452,1.458-.665,7.375-3.387,9-3.88a.914.914,0,1,0-.386-1.78c-2.523.79-5.046,1.611-7.57,2.389-3.2,1.063-6.415,2.05-9.621,3.084-1.066.34-2.195.576-3.2,1-1.672.707-2.766,2.551-3.88,3.9-2.208,2.615-4.417,5.209-6.625,7.825-1.222,1.436-2.422,2.872-3.644,4.309a8.94,8.94,0,0,0,1.393-4.868,6.271,6.271,0,0,0-3.234-5.249,27.062,27.062,0,0,0-2.7-1.353,46.01,46.01,0,0,0,6.774-4.438c2.23-1.865,4.288-3.88,6.368-5.917.664-.643,1.286-1.307,1.907-1.951l.9-.921c.086-.086.15-.108.214-.172a2.85,2.85,0,0,1,.343-.193,16.9,16.9,0,0,0,4.717-2.958,1.018,1.018,0,0,0,.321-.751.981.981,0,0,0-1.029-.922A17.568,17.568,0,0,0,124.6,43.9a3.749,3.749,0,0,0-.878.408,3.333,3.333,0,0,0-.858.686l-1.008,1.05c-.622.686-1.221,1.351-1.822,2.037-2.315,2.658-4.545,5.36-6.6,8.211-.708.986-2.487,1.651-3.516,2.251-.879.514-1.779,1.029-2.659,1.565A23.743,23.743,0,0,0,92.8,60.084L91.494,59.7c-1.278-1.38-3-1.853-4.356-2.908a5.257,5.257,0,0,1-.993-1.095c-1.914-2.63-3.99-5.169-6.158-7.617-.6-.686-1.222-1.351-1.844-2.037l-.986-1.05A4.267,4.267,0,0,0,76.3,44.3a3.831,3.831,0,0,0-.9-.408,17.419,17.419,0,0,0-5.424-1.222.949.949,0,0,0-.686,1.673A16.8,16.8,0,0,0,73.984,47.3a1.647,1.647,0,0,1,.343.193.84.84,0,0,1,.215.172l.9.921c.643.644,1.265,1.308,1.929,1.951a86.522,86.522,0,0,0,6.775,6.389,34.8,34.8,0,0,0,3.666,2.4c.321.193,2.337,1.715,2.68,1.565a24.842,24.842,0,0,0-3.109,1.565,5.9,5.9,0,0,0-2.83,5.124,9.043,9.043,0,0,0,1.394,4.8l-7.653-9.068c-1.223-1.458-2.445-2.894-3.667-4.352-1.093-1.287-1.779-2.294-3.451-2.83-.922-.279-1.823-.579-2.744-.858-2.7-.857-5.4-1.736-8.083-2.594-2.98-.943-5.938-1.972-8.939-2.83a.913.913,0,0,0-.622,1.715l19.144,8.147a1.43,1.43,0,0,1,.579.493c2.208,3.216,4.331,6.432,6.539,9.647,1.179,1.716,2.293,3.452,3.58,5.081.172.193.708.729.557,1.029-.236.429-1.265.043-1.565-.085a27.569,27.569,0,0,1-3.429-2.015c-1.351-.772-2.7-1.48-4.074-2.209C63.05,66.749,53.66,61.647,43.756,57.852a78.2,78.2,0,0,0-10.131-3.073,1.707,1.707,0,0,1-1.106-2.509Zm40.6,125.651a30.577,30.577,0,0,1,.15-5.638c2.015.171,4.052.279,6.11.279a70.384,70.384,0,0,0,17.729-2.251A41.3,41.3,0,0,1,115.6,140.6c-.086.279-.214.536-.3.815A55.887,55.887,0,0,1,93.086,143.327Zm17.665,6.71a41.142,41.142,0,0,1-2.4,3.366l-.15.172c-.257.321-.514.622-.793.965a25.578,25.578,0,0,1-9.8,1.093,16.557,16.557,0,0,1-2.937-4.759c1.565.128,3.173.214,4.738.214A64.275,64.275,0,0,0,110.751,150.037Zm-22.4-20.345a29.792,29.792,0,0,1,.45-5.1,92.086,92.086,0,0,0,9.819.493,95.275,95.275,0,0,0,19.509-1.951,32.991,32.991,0,0,1,.086,3.838v.021c0,.257-.043.493-.065.75C109.336,130.786,98.167,131.45,88.348,129.692ZM111.78,90.374v6.132a5.043,5.043,0,0,1-.815,2.765,5.125,5.125,0,0,1-4.33,2.38,6.536,6.536,0,0,1-2.916-.665c-4.2-2.079-8.146-4.866-10.076-9.068a19.044,19.044,0,0,1-1.394-8.962,16.706,16.706,0,0,1,1.694-6.86,6.921,6.921,0,0,1,6.067-3.645h.043a16.425,16.425,0,0,1,5.253.837,10.21,10.21,0,0,1,2.551,1.157,8.728,8.728,0,0,1,2.036,1.651c.172.193.344.407.515.622a7.3,7.3,0,0,1,1.372,4.395v8.9c0,.064-.043.085-.043.15S111.78,90.31,111.78,90.374Zm-1.651-18.866h-.021a2.921,2.921,0,0,1-.343-.214,20.2,20.2,0,0,0-18.694-.429,12.34,12.34,0,0,0-1.137.686l-.042-.043a5.669,5.669,0,0,1-1.673-4.03,2.149,2.149,0,0,1,1.029-1.844,20.824,20.824,0,0,1,21.5,0,2.2,2.2,0,0,1,1.029,1.844A5.65,5.65,0,0,1,110.129,71.508Zm7.354,46.136a93.472,93.472,0,0,1-27.163,1.543,29.5,29.5,0,0,1,3.152-5.788c1.308.043,2.594.107,3.9.107a137.636,137.636,0,0,0,16.378-1.029l2.445-.321a1.531,1.531,0,0,0,.064.3,41.135,41.135,0,0,1,1.093,4.395c.043.235.108.471.129.707Zm-6.153-8.6a128.16,128.16,0,0,1-14.878.729,25.728,25.728,0,0,1,2.787-2.551,8.325,8.325,0,0,1,5.338-1.887h2.937a8.7,8.7,0,0,1,3.923.9,9.285,9.285,0,0,1,3.044,2.444C113.41,108.811,112.359,108.94,111.33,109.047Zm-56.9-37.024.515.128a18.541,18.541,0,0,1,3.258.9,4.466,4.466,0,0,1,2.637,2.465c.686,2.38-7.782.365-8.725.279-3.044-.279-6.046-.493-9.069-.708a37.1,37.1,0,0,0-6.367-.107,19.492,19.492,0,0,0-6.925,1.973,1.489,1.489,0,0,1-1.779-.3c-.815-.9-1.608-1.779-2.38-2.679-.471-.493-.9-1.008-1.35-1.523-.322-.342-.836-.643-1.051-1.05-.364-.686.15-.986.708-1.415a13.648,13.648,0,0,1,1.414-1.072c1.351-.793,2.788-.236,4.246-.15,1.157.064,2.315.193,3.451.3,1.436.107,2.873.236,4.309.343a11.512,11.512,0,0,0,4.2-.086,6.178,6.178,0,0,1,4.588.086A48.688,48.688,0,0,0,54.432,72.023ZM50.4,65.355c.108-1.007,1.137-.107,1.587.086.129.064.257.15.386.215.9.707,1.029,2.015,1.158,3.129.193,1.523-1.33,1.072-1.951.236A5.317,5.317,0,0,1,50.4,65.355ZM31.107,78.326A18.2,18.2,0,0,1,36.853,76.8a40.545,40.545,0,0,1,6.045.107c5.531.407,11.213.729,16.765,1.307,2.723.3,5.424.729,8.147,1.115,1.479.215,3.087.515,4.566.729.493.065,4.438.3,3.774,1.522-.129.236-.472.236-.751.193-3.387-.536-6.732-1.157-10.14-1.522a75.081,75.081,0,0,0-10.977-.407,46.274,46.274,0,0,0-18.051,4.223,1.155,1.155,0,0,1-1.265-.214c-1.393-1.308-2.765-2.7-4.116-4.116A.9.9,0,0,1,31.107,78.326Zm6.967,6.946a48.966,48.966,0,0,1,19.488-3.731c.322,0,.729.065.879.365.214.386-.214.836-.578,1.093-3.988,2.637-8.469,4.867-11.77,8.233a1.338,1.338,0,0,1-1.565.257,24.225,24.225,0,0,1-2.7-1.737c-1.35-1.029-2.658-2.1-3.944-3.237A.749.749,0,0,1,38.074,85.272ZM49.223,90.7a9.335,9.335,0,0,1,4.952-2.337,13.881,13.881,0,0,1,3.259.171c2.422.279,4.844.6,7.246.922a.974.974,0,0,1,.665.236c.471.429-.108,1.179-.622,1.565a9.038,9.038,0,0,0-3.409,4.095c-.322.793-2.573.257-3.3.214a35.9,35.9,0,0,1-3.966-.579c-2.358-.471-4.759-.686-6.774-2.186C47.529,91.9,48.537,91.253,49.223,90.7Zm15.692,2.68a12.178,12.178,0,0,1,3.859-2.938,14.187,14.187,0,0,1,5.36-.793c.922,0,1.865,0,2.809.043.536,0,3.472,0,1.929.836-.429.236-.857.472-1.265.708a38.182,38.182,0,0,1-6.8,3.108,25.131,25.131,0,0,1-5.424,1.351c-.643.043-1.951.279-1.972-.429C63.415,94.683,64.53,93.761,64.915,93.376Zm-8.1-6.475c-.279-.021-.6-.129-.643-.386-.043-.15.086-.321.193-.45a12.976,12.976,0,0,1,5.166-3.73,6,6,0,0,1,2.38-.408c1.2.086,2.4.279,3.6.386,2.336.236,4.652.493,6.989.794,3.022.364,6.131.728,9.239,1.007a.9.9,0,0,1,.815.879v2.273a.9.9,0,0,1-.9.879A249.313,249.313,0,0,1,56.812,86.9Zm26.155-5.3a60.285,60.285,0,0,0-8.34-2.53c-2.122-.493-4.245-.9-6.367-1.265-1.458-.257-2.937-.45-4.4-.664a1.107,1.107,0,0,1-1.114-1.115,6.4,6.4,0,0,0-.558-2.1,6.453,6.453,0,0,0-3.28-2.551c-1.179-.493-2.616-.386-3.345-1.651a5.177,5.177,0,0,1-.6-1.951c-.214-1.629,1.8-.107,2.359.171,4.33,2.359,8.682,4.653,13.012,7.011L76.514,78.3a20.771,20.771,0,0,0,7.4,2.187c.386.064.858.514.729.922C84.425,82.1,83.4,81.777,82.967,81.606ZM29.028,57.337c.3.086.6.172.922.258,1.222.343,2.443.729,3.708,1.05a66.574,66.574,0,0,1,8.747,2.723c1.672.643,3.323,1.308,4.974,2.037a2.04,2.04,0,0,1,1.2,1.35c.257.9.472,1.865.665,2.766a.774.774,0,0,1-.986.879c-1.694-.558-3.344-1.18-4.974-1.887-1.007-.407-2.036-.879-3.044-1.329a67.4,67.4,0,0,0-8.426-3.3,13.347,13.347,0,0,1-3.73-1.8c-.814-.557-2.422-1.457-2.68-2.465C25.083,56.394,28.277,57.144,29.028,57.337Zm-12.392,2.53c.772-1.908,2.358-2.744,4.459-2.98a1.982,1.982,0,0,1,1.694.579l3,3a12.5,12.5,0,0,0,2.123,1.8A12.916,12.916,0,0,0,31.3,63.64a63.073,63.073,0,0,1,8.19,3.238c.45.171.943.257,1.093.707-1.287.557-2.916.021-4.266-.107-1.2-.086-2.4-.193-3.623-.3-1.844-.15-3.709-.3-5.553-.472a5.078,5.078,0,0,0-1.78.086,5.117,5.117,0,0,0-1.715,1.072l-1.415,1.222c-.964.814-3.6-2.895-4.18-3.645C16.872,63.855,15.843,61.839,16.636,59.867Zm130.9,122.457H52.481L4.952,100,19.024,75.632a1.7,1.7,0,0,1,2.748-.277q.689.784,1.381,1.556A134.737,134.737,0,0,0,37.174,90.867c.794.643,1.586,1.286,2.4,1.887,5.746,4.352,13.571,6.731,21.653,6.731a40.428,40.428,0,0,0,4.824-.278,32.472,32.472,0,0,0,13.57-4.888A16.589,16.589,0,0,1,82.9,92.732c.686-.236,2.229-.9,1.736.558-.536,1.629-2.315,2.186-3.6,3.044-2.187,1.458-4.394,2.894-6.581,4.352l-4.76,3.152a13.449,13.449,0,0,0-2.915,2.1,20.146,20.146,0,0,0-1.544,2.423c-1.243,1.972-1.95,3.773-4.287,4.609-3.9,1.437-7.911,2.744-11.684,4.352-1.18.386-2.337.751-3.538,1.137a.912.912,0,0,0-.536,1.05.937.937,0,0,0,1.093.708l18.438-4.2a1.724,1.724,0,0,0,1.05-.686l.086-.151,3.709-5.3A3.884,3.884,0,0,1,71,108.618l11.341-5.852c.836-.451,1.651-.944,2.487-1.351.879-.407,1.5-.364,1.565.793a2.169,2.169,0,0,1-.557,1.394c-.987,1.2-2.209,2.208-3.3,3.323a53.091,53.091,0,0,0-6.388,8.1c-1.394,2.016-2.809,4.031-4.245,6.025s-2.873,3.987-4.2,6.088l-.15.215a2.285,2.285,0,0,0-.321,1.157c0,1.822.021,3.666.021,5.489a27.1,27.1,0,0,1-.043,4.759,9.485,9.485,0,0,1-2.058,3.859c-1.607,2.315-3.13,4.673-4.694,7.01q-3.41,5.113-6.8,10.183a.959.959,0,0,0,.172,1.244.935.935,0,0,0,1.286-.129c2.23-2.7,4.481-5.424,6.71-8.125,1.716-2.079,3.431-4.138,5.146-6.217,1.462-1.775,3.595-3.429,4.437-5.614a4.884,4.884,0,0,0,.258-1.73c.021-3.291.043-6.559.064-9.85.022-.965,1.479-2.358,2.037-3.044s4.673-5.917,4.759-2.7c.043,1.522-.386,3-.343,4.5A45.627,45.627,0,0,0,81.1,142.255a48.926,48.926,0,0,0,4.266,8.554,56.522,56.522,0,0,0,6.6,8.554c1.994,2.123,4.845,5.853,8.039,5.853,2.916,0,5.339-3.066,7.2-5a52.125,52.125,0,0,0,7.61-9.712,47.636,47.636,0,0,0,6.068-14.943,40.422,40.422,0,0,0,.707-7.524c.043-1.265.065-2.509.128-3.774.172-2.958,2.359-.6,3.3.579,2.122,2.637,3.323,4.545,3.259,7.975-.065,2.423.021,4.845.043,7.247v.128a1.918,1.918,0,0,0,.428,1.2l16.122,19.53a.92.92,0,0,0,1.2.172.93.93,0,0,0,.257-1.287c-2.015-3.022-4.052-6.067-6.088-9.089l-6.668-10.012a4.991,4.991,0,0,1-.643-1.2c-.043-3.216-.107-6.431-.15-9.647a7.039,7.039,0,0,0-.172-2.123,10.621,10.621,0,0,0-1.286-2.1c-1.05-1.543-2.144-3.065-3.237-4.587-1.437-1.994-2.851-4.009-4.245-6.025-1.587-2.294-3.215-4.759-5.038-6.946A30.78,30.78,0,0,0,115.875,105c-.729-.643-2.68-1.543-2.4-2.744.386-1.565,1.093-1.093,2.058-.6s1.908.986,2.873,1.5l7.332,3.8c2.122,1.093,3.816,1.651,5.209,3.666,1.051,1.522,2.122,3.044,3.194,4.566l.086.151a1.731,1.731,0,0,0,1.051.686l18.437,4.2a.931.931,0,0,0,.515-1.78l-17-6.131c-1.114-1.8-2.25-3.623-3.386-5.424a5.01,5.01,0,0,0-1.759-1.844c-3.323-1.844-6.41-4.138-9.54-6.281-1.371-1.072-2.915-1.887-4.373-2.809a7.52,7.52,0,0,1-2.551-1.908,1.568,1.568,0,0,1-.172-1.436c.2-.3.571-.245.952-.131a15.841,15.841,0,0,1,3.546,1.569,32.556,32.556,0,0,0,14,5.165,40.779,40.779,0,0,0,4.845.278c8.061,0,15.907-2.379,21.653-6.731.793-.6,1.564-1.222,2.337-1.865.193-.15.385-.322.578-.472.784-.654,1.547-1.351,2.332-2.048l1.913-1.768c1.008-.986,2.015-1.972,3-2.98.687-.686,1.351-1.394,2.016-2.1,1.115-1.179,2.187-2.358,3.259-3.537.773-.873,2.253-2.559,3.151-3.583a.816.816,0,0,1,1.322.137L195.048,100Z"/></svg>