<svg id="Layer_1" data-name="Layer 1" xmlns="http://www.w3.org/2000/svg" width="393.955" height="288.317" viewBox="0 0 393.955 288.317"><defs><style>.cls-1{fill:#b7926e;}.cls-2{fill:#164556;}</style></defs><path class="cls-1" d="M236.071,67.916a1.04,1.04,0,0,1,.083-1.166,10.381,10.381,0,0,0,1.383-2.117,5.67,5.67,0,0,0,.281-.913c.019-.1.03-.211.04-.311a3.511,3.511,0,0,0,0-.632,3.785,3.785,0,0,0-.121-.642c-.04-.111-.08-.211-.12-.322s-.1-.24-.161-.351a4.779,4.779,0,0,0-.391-.622c-1.2-1.558-3.292-1.685-5.218-1.463a1.027,1.027,0,0,1-1-.517L220.38,40.734H173.585l-.089.153-.247.429-.389.673-.51.884-.614,1.062-.7,1.21-.764,1.323-.812,1.406-.84,1.454-.849,1.472-.841,1.456-.813,1.408-.767,1.328-.7,1.216-.618,1.071-.516.893c-.061.105-.22.393-.375.675a1.1,1.1,0,0,1-1.094.558c-.429-.054-.912-.11-1.044-.11h-.261a7.828,7.828,0,0,0-.973.05,5.61,5.61,0,0,0-.923.2,2.868,2.868,0,0,0-.692.271,3.546,3.546,0,0,0-.542.321c-.09.07-.181.14-.261.211s-.16.15-.241.24a3.809,3.809,0,0,0-.772,1.224,3.269,3.269,0,0,0-.251,1.275,3.416,3.416,0,0,0,.06.642,5.252,5.252,0,0,0,.843,1.946c.05.091.11.171.17.261s.473.6.771.96a.738.738,0,0,1,.066.839l-7.82,13.532L173.585,121.8H220.38l23.4-40.534Zm-2.307-6.444a1.111,1.111,0,0,1,1.084-.15,2.011,2.011,0,0,1,1.143,1.164c.382.923-.21,1.936-.953,2.869a1.189,1.189,0,0,1-.742.422c-.411.05-.833.1-1.234.16-.311.05-.622.08-.923.141a3.356,3.356,0,0,1-1.3.21c-.23-.03-2.568-.582-2.387-.923a.79.79,0,0,1,.25-.19c.191-.141.382-.241.572-.382C229.279,64.793,232.089,62.716,233.764,61.472ZM204.517,74.716c.763-.08,1.867.713,2.539,1.014a11.569,11.569,0,0,0,4.153,1.334.388.388,0,0,1,.382.191,8.269,8.269,0,0,1,.893,1.244c.15.351.16.411-.191.451a5.819,5.819,0,0,1-2.257-.542,12.731,12.731,0,0,1-2.569-1.274,9.457,9.457,0,0,0-2.789-1.164.8.8,0,0,1-.291-.11.652.652,0,0,1-.191-.582C204.216,74.9,204.136,74.746,204.517,74.716Zm-.321-2.057a.562.562,0,0,1,.5-.592c.3-.08.612-.02.913-.09a9.989,9.989,0,0,0,2.368-.863l1.675-.913a.2.2,0,0,1,.3.241c-.231.742-.441,1.5-.622,2.247a.5.5,0,0,1-.4.362c-.793.11-1.6.23-2.4.341-.542.07-1.084.15-1.626.221C204.086,73.733,204.206,73.382,204.2,72.659Zm8.147,4.164a1.516,1.516,0,0,0-.411-.451,1.339,1.339,0,0,0-.713-.161,11.132,11.132,0,0,1-3.8-1.254,9.424,9.424,0,0,1-1.2-.552c.2-.221.732-.17.993-.11.4.11.8.18,1.2.261.883.19,1.766.351,2.649.521,1.525.3,3.09.6,4.294.893a13.759,13.759,0,0,0,3.02.462c.221,0,.452-.02.682-.04a2.512,2.512,0,0,1,1.887.17,3.023,3.023,0,0,1,.822.853.355.355,0,0,1-.13.532,16.8,16.8,0,0,1-7.465,1.284.734.734,0,0,1-.552-.331Zm9.04-.993c-.1-.391,1.916-.893,2.127-.963a10.6,10.6,0,0,1,1.806-.542c.431-.07,1.555-.271,1.164.391-.472.8-1.555,1.214-2.278,1.756a5.685,5.685,0,0,1-1.113.722c-.331.151-.211.161-.462-.05a6.215,6.215,0,0,1-.441-.582C222.025,76.362,221.443,76.081,221.383,75.83Zm1.856-1.776c-.512.171-.993.381-1.475.592a7.52,7.52,0,0,1-6.22.482c-1.214-.291-2.79-.592-4.325-.893-.3-.061-.612-.071-.913-.121-.2-.03-.6,0-.762-.17-.2-.221.421-.291.6-.3a9.06,9.06,0,0,0,3.943-.833,8.78,8.78,0,0,0,2.308-1.977.485.485,0,0,1,.361-.16,87.214,87.214,0,0,1,12.11,1,.26.26,0,0,1,.15.442c-.391.4-.782.8-1.184,1.184a.649.649,0,0,1-.481.17A10.826,10.826,0,0,0,223.239,74.054Zm2.328-8.177a19.994,19.994,0,0,1-2.268.5,16.4,16.4,0,0,0-4.173,1.113,10.9,10.9,0,0,0-3.331,2.669,9.606,9.606,0,0,1-1.726,1.706,4.353,4.353,0,0,1-1.094.511.218.218,0,0,1-.21-.02c-.051-.05-.031-.14-.011-.2.322-1.044.623-2.067.944-3.111a7.136,7.136,0,0,1,.291-.9,1.5,1.5,0,0,1,.321-.431,2.768,2.768,0,0,1,.792-.492c1.034-.511,2.087-1.023,3.131-1.525,1.535-.752,3.11-1.465,4.695-2.107a1.111,1.111,0,0,1,1.154.211,17.993,17.993,0,0,0,1.605,1.224A.473.473,0,0,1,225.567,65.877Zm1.124.5c.241-.111.471-.332.742-.352.371-.03.733.261,1.054.412a9.309,9.309,0,0,0,1,.371c.271.09.461.211.221.472-.191.2-.412.351-.6.541-.442.442-.863.9-1.285,1.365-.331.361-.852,1.344-1.434,1.274-1.485-.181-2.99-.321-4.485-.421q-1.13-.077-2.288-.121c-.441-.03-.913.02-1.374,0a1.611,1.611,0,0,1-.723-.1c-.17-.12-.03-.221.111-.351.17-.151.361-.271.542-.412a12.3,12.3,0,0,1,5.277-1.826A16.211,16.211,0,0,0,226.691,66.379Zm-14.167,3.772c-.171.6-.341,1.214-.492,1.836a.966.966,0,0,1-.722.723c-.191.03-.462.07-.462.07l-.2.03a.329.329,0,0,1-.362-.4,18.535,18.535,0,0,1,.753-2.509c.01-.01.02-.03.03-.04a2.281,2.281,0,0,1,.833-.913c.05-.04,1.073-.632,1.073-.451A6.9,6.9,0,0,1,212.524,70.151Zm16.053.6a.469.469,0,0,1-.281-.793l1.445-1.545a4.365,4.365,0,0,1,1.525-1.224c.391-.15,2.428-.843,2.448-.261.04.582-1.224,1.395-1.575,1.786-.582.662-1.174,1.325-1.766,1.977a.813.813,0,0,1-.692.231C229.309,70.873,228.948,70.813,228.577,70.753Zm3.7-9.812c1.154.12-.652,1.194-.973,1.414-.863.562-1.716,1.144-2.539,1.746-.361.261-.722.542-1.1.783a.479.479,0,0,1-.5.02,15.264,15.264,0,0,1-2.438-1.676.209.209,0,0,1,.06-.351,33.5,33.5,0,0,1,3.793-1.094c.682-.16,1.344-.381,2.027-.551A5.311,5.311,0,0,1,232.279,60.941Zm-57.54-18.2h44.487l9.341,16.187a.8.8,0,0,1-.52,1.175,36.538,36.538,0,0,0-4.748,1.441,114.229,114.229,0,0,0-13.274,6.451c-.7.391-1.394.813-2.107,1.194a7.445,7.445,0,0,1-1.575.843c-.331.08-.6.16-.521-.251a2.084,2.084,0,0,1,.531-.823,51.112,51.112,0,0,0,3.041-4.254,6.4,6.4,0,0,1,2.417-2.639c1.285-.572,2.6-1.043,3.873-1.615.683-.311,3.452-1.585,4.214-1.816a.428.428,0,1,0-.181-.833c-1.18.37-2.361.754-3.542,1.118-1.5.5-3,.96-4.5,1.443-.5.159-1.027.27-1.5.469-.782.331-1.294,1.194-1.816,1.826-1.033,1.224-2.067,2.438-3.1,3.662-.572.673-1.134,1.345-1.706,2.017a4.183,4.183,0,0,0,.652-2.278,2.935,2.935,0,0,0-1.513-2.457,12.883,12.883,0,0,0-1.266-.633A21.555,21.555,0,0,0,204.6,60.89c1.043-.873,2.006-1.816,2.979-2.769.312-.3.6-.612.893-.913l.422-.431c.04-.04.07-.05.1-.081a1.245,1.245,0,0,1,.16-.09,7.9,7.9,0,0,0,2.208-1.384.478.478,0,0,0,.15-.352.459.459,0,0,0-.481-.431,8.214,8.214,0,0,0-2.539.572,1.725,1.725,0,0,0-.411.191,1.537,1.537,0,0,0-.4.321l-.472.491c-.291.321-.572.632-.853.953-1.083,1.244-2.127,2.509-3.09,3.843a5.5,5.5,0,0,1-1.645,1.054c-.412.24-.833.481-1.245.732a11.106,11.106,0,0,0-6.764-.009L193,62.406a13.6,13.6,0,0,0-2.039-1.361,2.444,2.444,0,0,1-.465-.513c-.895-1.231-1.867-2.419-2.882-3.565-.281-.321-.572-.632-.863-.953l-.461-.491a1.989,1.989,0,0,0-.4-.321,1.744,1.744,0,0,0-.421-.191,8.143,8.143,0,0,0-2.538-.572.464.464,0,0,0-.362.14.459.459,0,0,0,.041.643,7.844,7.844,0,0,0,2.2,1.384.814.814,0,0,1,.161.09.418.418,0,0,1,.1.081l.421.431c.3.3.592.612.9.913a40.559,40.559,0,0,0,3.171,2.99,16.322,16.322,0,0,0,1.715,1.124c.151.09,1.094.8,1.255.732a11.586,11.586,0,0,0-1.455.733,2.76,2.76,0,0,0-1.325,2.4,4.235,4.235,0,0,0,.652,2.247q-1.79-2.122-3.581-4.244c-.572-.682-1.144-1.354-1.716-2.037a3.367,3.367,0,0,0-1.615-1.324c-.432-.131-.853-.271-1.285-.4-1.264-.4-2.528-.813-3.782-1.214-1.395-.442-2.779-.924-4.184-1.325a.427.427,0,0,0-.291.8l8.96,3.812a.687.687,0,0,1,.271.231c1.033,1.5,2.026,3.01,3.06,4.515.552.8,1.073,1.616,1.675,2.378.081.09.331.341.261.482-.11.2-.592.02-.732-.041a12.765,12.765,0,0,1-1.6-.943c-.633-.361-1.265-.692-1.907-1.033a113.385,113.385,0,0,0-13.274-6.461,36.625,36.625,0,0,0-4.741-1.439.8.8,0,0,1-.518-1.174Zm19,58.805a14.29,14.29,0,0,1,.07-2.639c.943.081,1.9.131,2.859.131a32.94,32.94,0,0,0,8.3-1.054,19.511,19.511,0,0,1-.693,2.288c-.04.13-.1.251-.14.381A26.175,26.175,0,0,1,193.742,101.545Zm8.267,3.14a19.265,19.265,0,0,1-1.124,1.576l-.07.08c-.12.15-.241.291-.371.451a11.953,11.953,0,0,1-4.586.512,7.763,7.763,0,0,1-1.374-2.227c.732.06,1.485.1,2.217.1A30.109,30.109,0,0,0,202.009,104.685Zm-10.485-9.521a13.949,13.949,0,0,1,.211-2.388,43.23,43.23,0,0,0,4.595.231,44.569,44.569,0,0,0,9.13-.913,15.05,15.05,0,0,1,.04,1.8v.01c0,.12-.02.23-.03.351A29.048,29.048,0,0,1,191.524,95.164Zm10.967-18.4v2.869a2.363,2.363,0,0,1-.382,1.3,2.4,2.4,0,0,1-2.026,1.113,3.051,3.051,0,0,1-1.365-.311A9.524,9.524,0,0,1,194,77.485a8.9,8.9,0,0,1-.652-4.194,7.8,7.8,0,0,1,.793-3.21,3.237,3.237,0,0,1,2.839-1.706H197a7.711,7.711,0,0,1,2.458.391,4.782,4.782,0,0,1,1.194.542,4.079,4.079,0,0,1,.953.773c.081.09.161.19.242.291a3.416,3.416,0,0,1,.642,2.057v4.163c0,.031-.021.04-.021.071S202.491,76.733,202.491,76.763Zm-.773-8.829h-.01a1.371,1.371,0,0,1-.161-.1,9.451,9.451,0,0,0-8.748-.2,5.443,5.443,0,0,0-.532.321l-.02-.02a2.653,2.653,0,0,1-.783-1.887,1,1,0,0,1,.482-.862,9.74,9.74,0,0,1,10.063,0,1.027,1.027,0,0,1,.482.862A2.645,2.645,0,0,1,201.718,67.934Zm3.441,21.591a43.751,43.751,0,0,1-12.712.723,13.82,13.82,0,0,1,1.475-2.709c.612.02,1.214.05,1.826.05a64.445,64.445,0,0,0,7.666-.482l1.143-.15a.7.7,0,0,0,.031.14,19.316,19.316,0,0,1,.511,2.057c.02.11.05.221.06.331ZM202.28,85.5a59.939,59.939,0,0,1-6.963.341,12.036,12.036,0,0,1,1.3-1.194,3.9,3.9,0,0,1,2.5-.883h1.375a4.078,4.078,0,0,1,1.836.422,4.352,4.352,0,0,1,1.425,1.143C203.253,85.392,202.761,85.452,202.28,85.5ZM175.652,68.174l.24.061a8.652,8.652,0,0,1,1.526.421,2.1,2.1,0,0,1,1.234,1.154c.321,1.114-3.642.17-4.084.13-1.425-.13-2.829-.23-4.244-.331a17.4,17.4,0,0,0-2.98-.05,9.1,9.1,0,0,0-3.241.923.7.7,0,0,1-.832-.14c-.382-.422-.753-.833-1.114-1.254-.221-.231-.421-.472-.632-.713-.151-.16-.391-.3-.492-.491-.17-.322.07-.462.331-.663a6.5,6.5,0,0,1,.662-.5c.633-.372,1.3-.111,1.987-.071.542.031,1.084.091,1.615.141.673.05,1.345.11,2.017.16a5.369,5.369,0,0,0,1.967-.04,2.893,2.893,0,0,1,2.147.04A22.647,22.647,0,0,0,175.652,68.174Zm-1.887-3.12c.05-.471.532-.05.743.04.06.03.12.071.18.1a2.078,2.078,0,0,1,.542,1.464c.09.713-.622.5-.913.111A2.491,2.491,0,0,1,173.765,65.054Zm-9.03,6.07a8.532,8.532,0,0,1,2.689-.712,19.1,19.1,0,0,1,2.83.05c2.588.191,5.247.341,7.846.612,1.274.141,2.538.341,3.812.522.693.1,1.445.241,2.137.341.231.03,2.077.14,1.766.712-.06.111-.221.111-.351.091-1.585-.251-3.15-.542-4.746-.713a35.107,35.107,0,0,0-5.137-.19,21.66,21.66,0,0,0-8.448,1.976.543.543,0,0,1-.592-.1c-.652-.612-1.294-1.264-1.926-1.927A.42.42,0,0,1,164.735,71.124ZM168,74.375a22.923,22.923,0,0,1,9.12-1.746c.151,0,.342.03.412.171.1.18-.1.391-.271.511-1.866,1.235-3.963,2.278-5.508,3.853a.627.627,0,0,1-.733.121,11.4,11.4,0,0,1-1.264-.813c-.632-.482-1.244-.983-1.846-1.515A.35.35,0,0,1,168,74.375Zm5.218,2.538a4.371,4.371,0,0,1,2.317-1.093,6.506,6.506,0,0,1,1.525.08c1.134.131,2.268.281,3.392.432a.455.455,0,0,1,.311.11c.22.2-.051.552-.291.732a4.235,4.235,0,0,0-1.6,1.917c-.15.371-1.2.12-1.545.1a16.944,16.944,0,0,1-1.856-.271A7.4,7.4,0,0,1,172.3,77.9C172.421,77.475,172.893,77.174,173.214,76.913Zm7.344,1.255a5.7,5.7,0,0,1,1.806-1.375,6.624,6.624,0,0,1,2.508-.371c.431,0,.873,0,1.315.02.25,0,1.625,0,.9.391-.2.111-.4.221-.592.331a17.889,17.889,0,0,1-3.181,1.455,11.744,11.744,0,0,1-2.538.632c-.3.02-.913.131-.923-.2C179.856,78.78,180.377,78.348,180.558,78.168Zm-3.793-3.03c-.13-.01-.281-.061-.3-.181-.02-.07.041-.151.091-.211A6.087,6.087,0,0,1,178.973,73a2.808,2.808,0,0,1,1.113-.19c.562.04,1.124.13,1.686.18,1.093.111,2.177.231,3.271.372,1.414.17,2.869.341,4.324.471a.422.422,0,0,1,.381.412v1.063a.421.421,0,0,1-.421.411A116.6,116.6,0,0,1,176.765,75.138Zm12.241-2.479a28.28,28.28,0,0,0-3.9-1.184c-.993-.23-1.987-.421-2.98-.592-.682-.12-1.374-.21-2.057-.311a.517.517,0,0,1-.521-.521,2.329,2.329,0,0,0-1.8-2.177c-.552-.231-1.225-.181-1.566-.773a2.447,2.447,0,0,1-.281-.913c-.1-.763.843-.05,1.1.08,2.027,1.1,4.064,2.177,6.09,3.281l2.89,1.565a9.724,9.724,0,0,0,3.461,1.024c.181.03.4.24.342.431C189.688,72.89,189.207,72.74,189.006,72.659ZM163.762,61.3c.141.04.281.08.432.12.572.161,1.143.341,1.736.492a31.093,31.093,0,0,1,4.093,1.274c.783.3,1.555.612,2.328.953a.96.96,0,0,1,.562.632c.12.422.22.873.311,1.3a.363.363,0,0,1-.462.411c-.792-.261-1.565-.552-2.328-.883-.471-.191-.953-.411-1.424-.622a31.552,31.552,0,0,0-3.943-1.545,6.265,6.265,0,0,1-1.746-.843c-.381-.261-1.134-.682-1.254-1.154C161.916,60.86,163.411,61.211,163.762,61.3Zm-5.8,1.184a2.293,2.293,0,0,1,2.087-1.395.928.928,0,0,1,.793.271l1.4,1.405a5.8,5.8,0,0,0,.994.842,6.059,6.059,0,0,0,1.585.643,29.567,29.567,0,0,1,3.833,1.515c.21.08.441.12.511.331a4.21,4.21,0,0,1-2-.051c-.562-.04-1.124-.09-1.7-.14-.863-.07-1.736-.14-2.6-.221a1.762,1.762,0,0,0-1.635.542l-.662.572c-.452.381-1.686-1.355-1.957-1.706A2.745,2.745,0,0,1,157.963,62.486ZM219.226,119.8H174.739L152.5,81.268l6.585-11.4a.8.8,0,0,1,1.287-.13q.321.368.646.728a63.028,63.028,0,0,0,6.562,6.532c.371.3.742.6,1.124.883a16.954,16.954,0,0,0,10.133,3.15,18.994,18.994,0,0,0,2.258-.13,15.2,15.2,0,0,0,6.351-2.288,7.684,7.684,0,0,1,1.535-.742c.321-.111,1.043-.422.813.26-.251.763-1.084,1.024-1.686,1.425-1.024.682-2.057,1.355-3.08,2.037L182.8,83.064a6.311,6.311,0,0,0-1.364.983,9.482,9.482,0,0,0-.723,1.134c-.582.923-.913,1.766-2.006,2.157-1.826.672-3.7,1.284-5.468,2.037-.552.18-1.094.351-1.656.531a.429.429,0,0,0-.251.492.439.439,0,0,0,.512.331l8.629-1.966a.807.807,0,0,0,.491-.321l.04-.071,1.736-2.478a1.826,1.826,0,0,1,.672-.592l5.308-2.739c.391-.211.773-.441,1.164-.632.411-.191.7-.17.732.371a1.008,1.008,0,0,1-.261.652c-.461.562-1.033,1.034-1.545,1.556a24.838,24.838,0,0,0-2.99,3.792c-.652.943-1.314,1.886-1.986,2.819s-1.345,1.867-1.967,2.85l-.07.1a1.072,1.072,0,0,0-.151.542c0,.853.01,1.716.01,2.569a12.637,12.637,0,0,1-.02,2.227,4.431,4.431,0,0,1-.963,1.806c-.752,1.083-1.465,2.187-2.2,3.281q-1.6,2.392-3.181,4.766a.447.447,0,0,0,.081.581.437.437,0,0,0,.6-.06c1.043-1.264,2.1-2.538,3.14-3.8.8-.974,1.6-1.937,2.408-2.91a10.851,10.851,0,0,0,2.077-2.627,2.285,2.285,0,0,0,.12-.81c.01-1.54.02-3.07.031-4.61.01-.451.692-1.1.953-1.424s2.187-2.769,2.227-1.264c.02.712-.181,1.4-.16,2.106a18.47,18.47,0,0,0,.481,3.643,18.676,18.676,0,0,0,.883,2.959,22.936,22.936,0,0,0,2,4,26.475,26.475,0,0,0,3.09,4c.933.993,2.267,2.739,3.762,2.739,1.365,0,2.5-1.435,3.371-2.338a24.308,24.308,0,0,0,3.562-4.545,22.28,22.28,0,0,0,2.84-6.993,19,19,0,0,0,.331-3.522c.02-.592.03-1.174.06-1.766.08-1.384,1.1-.28,1.545.271a5.187,5.187,0,0,1,1.525,3.733c-.03,1.133.01,2.267.02,3.391v.06a.894.894,0,0,0,.2.562l7.545,9.14a.43.43,0,0,0,.562.081.435.435,0,0,0,.12-.6c-.943-1.415-1.9-2.84-2.849-4.255l-3.121-4.685a2.337,2.337,0,0,1-.3-.562c-.02-1.5-.05-3.01-.07-4.515a3.311,3.311,0,0,0-.08-.993,4.94,4.94,0,0,0-.6-.983c-.492-.723-1-1.435-1.515-2.148-.672-.933-1.335-1.876-1.987-2.819-.742-1.073-1.505-2.227-2.358-3.251a14.343,14.343,0,0,0-1.374-1.444c-.341-.3-1.254-.723-1.124-1.285.181-.732.512-.511.963-.281s.893.462,1.345.7l3.431,1.776a5.492,5.492,0,0,1,2.438,1.715c.492.713.993,1.425,1.5,2.137l.04.071a.811.811,0,0,0,.492.321l8.629,1.966a.435.435,0,0,0,.24-.833L214.4,87.027c-.522-.843-1.053-1.7-1.585-2.538a2.334,2.334,0,0,0-.823-.863c-1.555-.863-3-1.937-4.465-2.94a24.1,24.1,0,0,0-2.047-1.314,3.522,3.522,0,0,1-1.193-.893.735.735,0,0,1-.081-.673c.094-.141.267-.114.446-.061a7.4,7.4,0,0,1,1.659.735,15.248,15.248,0,0,0,6.554,2.417,19.145,19.145,0,0,0,2.267.13,16.977,16.977,0,0,0,10.134-3.15c.371-.281.732-.572,1.094-.873.09-.07.18-.151.271-.221.366-.306.723-.632,1.091-.959l.895-.827c.472-.461.943-.923,1.405-1.395.321-.321.632-.652.943-.983.522-.552,1.023-1.1,1.525-1.655.362-.409,1.054-1.2,1.475-1.677a.382.382,0,0,1,.619.064l6.876,11.917Z"/><path class="cls-2" d="M117.934,195.758a23.245,23.245,0,0,0,.532,4.255c0,.912-.608,1.52-2.659,1.52-2.242,0-2.85-.608-2.85-1.52,0-.646.76-1.71.76-4.255v-4.864c0-1.026-.3-1.292-1.6-1.292h-8.549c-1.254,0-1.595.266-1.595,1.292v4.864c0,2.545.8,3.609.8,4.255,0,.912-.608,1.52-2.887,1.52-2.052,0-2.622-.608-2.622-1.52a24.933,24.933,0,0,0,.494-4.255V181.586a25.565,25.565,0,0,0-.494-4.256c0-.874.57-1.482,2.622-1.482,2.279,0,2.887.608,2.887,1.482,0,.684-.8,1.71-.8,4.256v3.495c0,1.178.341,1.444,1.595,1.444h8.587c1.216,0,1.558-.266,1.558-1.444v-3.495c0-2.546-.76-3.572-.76-4.256,0-.874.608-1.482,2.85-1.482,2.051,0,2.659.608,2.659,1.482a23.834,23.834,0,0,0-.532,4.256Z"/><path class="cls-2" d="M124.206,189.071c0-7.865,5.129-13.488,12.007-13.488,7.066,0,11.968,5.205,11.968,12.728,0,7.865-5.091,13.488-11.968,13.488C129.146,201.8,124.206,196.594,124.206,189.071Zm19.453-.836c0-5.889-2.964-9.575-7.446-9.575-4.294,0-7.447,4.293-7.447,10.449,0,5.889,2.964,9.574,7.447,9.574C140.506,198.683,143.659,194.39,143.659,188.235Z"/><path class="cls-2" d="M153.96,200.013a24.933,24.933,0,0,0,.494-4.255V181.586a25.565,25.565,0,0,0-.494-4.256c0-.874.456-1.482,2.2-1.482a1.791,1.791,0,0,1,1.71.723l10.79,14.817c1.444,1.938,1.672,2.09,1.938,2.09.228,0,.266-.152.266-2.09v-9.8c0-2.546-.76-3.572-.76-4.256,0-.874.608-1.482,2.242-1.482s2.2.608,2.2,1.482a23.876,23.876,0,0,0-.531,4.256v14.172a23.287,23.287,0,0,0,.531,4.255c0,.912-.493,1.52-2.241,1.52a1.729,1.729,0,0,1-1.672-.722L160.115,186.3c-1.443-1.938-1.748-2.128-2.09-2.128-.3,0-.417.228-.417,3.686v7.9c0,2.545.8,3.609.8,4.255,0,.912-.607,1.52-2.241,1.52S153.96,200.925,153.96,200.013Z"/><path class="cls-2" d="M181.054,200.013a24.933,24.933,0,0,0,.494-4.255V181.586a25.565,25.565,0,0,0-.494-4.256,1.367,1.367,0,0,1,1.444-1.482c1.026,0,2.09.115,3.077.115,8.169,0,9.385-.228,10.449-.228,1.33,0,2.507,2.127,2.507,3.761a1.263,1.263,0,0,1-1.254,1.406,2.026,2.026,0,0,1-.987-.38c-1.444-.912-2.811-1.71-7.219-1.71-3,0-3.305.342-3.305,1.406v5.205c0,.95.493,1.178,1.747,1.178,6.041,0,5.928-.8,6.953-.8.912,0,1.33.684,1.33,2.355,0,1.634-.418,2.318-1.33,2.318-.949,0-1.1-.8-6.877-.8-1.33,0-1.823.341-1.823,1.405v5.738c0,1.215.38,1.595,3.685,1.595,4.939,0,6.155-.874,7.637-1.9a1.679,1.679,0,0,1,.911-.379,1.25,1.25,0,0,1,1.292,1.405c0,1.786-1.329,3.99-2.7,3.99-1.027,0-2.546-.114-10.943-.114-1.026,0-2.2.114-3.153.114A1.378,1.378,0,0,1,181.054,200.013Z"/><path class="cls-2" d="M222.547,181.282l-5.318,9.232a5.311,5.311,0,0,0-.647,3.078v2.432c0,2.355.532,2.963.532,3.989,0,1.292-.721,1.52-2.622,1.52-2.013,0-2.621-.266-2.621-1.52a25.915,25.915,0,0,0,.494-4.065V193.63a4.858,4.858,0,0,0-.836-3.077l-5.319-9.271c-1.558-2.774-2.773-3.154-2.773-3.952,0-1.33,1.025-1.482,3.38-1.482,2.812,0,3.534.19,3.534,1.482,0,.418-.266.722-.266,1.33a6.321,6.321,0,0,0,1.064,2.888l3.5,6.345c.152.265.265.418.418.418s.265-.114.456-.418l3.5-6.345a6.291,6.291,0,0,0,1.026-2.888c0-.57-.228-.912-.228-1.33,0-1.215.759-1.482,2.773-1.482,2.052,0,2.7.267,2.7,1.482C225.283,178.128,224.106,178.508,222.547,181.282Z"/><path class="cls-2" d="M230.491,200.013a24.933,24.933,0,0,0,.494-4.255V181.586a25.565,25.565,0,0,0-.494-4.256,1.367,1.367,0,0,1,1.445-1.482c1.1,0,2.241.115,3.38.115,1.6,0,3.193-.115,4.789-.115,6.041,0,8.852,1.938,8.852,5.928a5.551,5.551,0,0,1-3.153,4.977c-.305.19-.571.38-.571.532,0,.19.266.342.646.494a6.169,6.169,0,0,1,4.294,6.117c0,4.635-4.027,7.637-10.449,7.637-1.6,0-3.154-.114-4.711-.114-1.026,0-2.09.114-3.077.114A1.379,1.379,0,0,1,230.491,200.013ZM244.4,182.346c0-2.356-1.634-3.42-5.129-3.42-3.573,0-4.066.152-4.066,1.482V185.5c0,.836.342.988,3.5.988C242.27,186.487,244.4,184.929,244.4,182.346Zm1.253,11.208c0-2.7-1.9-3.952-5.813-3.952-4.1,0-4.635.153-4.635,1.33v6.155c0,1.254.418,1.33,3.723,1.33C243.6,198.417,245.651,196.707,245.651,193.554Z"/><path class="cls-2" d="M255.8,200.013a24.933,24.933,0,0,0,.494-4.255V181.586a25.565,25.565,0,0,0-.494-4.256,1.367,1.367,0,0,1,1.444-1.482c1.026,0,2.09.115,3.077.115,8.169,0,9.385-.228,10.449-.228,1.33,0,2.507,2.127,2.507,3.761a1.262,1.262,0,0,1-1.253,1.406,2.025,2.025,0,0,1-.988-.38c-1.444-.912-2.811-1.71-7.219-1.71-3,0-3.3.342-3.3,1.406v5.205c0,.95.493,1.178,1.747,1.178,6.041,0,5.928-.8,6.953-.8.912,0,1.33.684,1.33,2.355,0,1.634-.418,2.318-1.33,2.318-.949,0-1.1-.8-6.877-.8-1.33,0-1.823.341-1.823,1.405v5.738c0,1.215.38,1.595,3.685,1.595,4.939,0,6.155-.874,7.637-1.9a1.682,1.682,0,0,1,.911-.379,1.25,1.25,0,0,1,1.292,1.405c0,1.786-1.329,3.99-2.7,3.99-1.026,0-2.546-.114-10.942-.114-1.027,0-2.2.114-3.154.114A1.378,1.378,0,0,1,255.8,200.013Z"/><path class="cls-2" d="M279.511,200.013a24.933,24.933,0,0,0,.494-4.255V181.586a25.565,25.565,0,0,0-.494-4.256,1.367,1.367,0,0,1,1.444-1.482c1.026,0,2.09.115,3.077.115,8.169,0,9.385-.228,10.449-.228,1.33,0,2.507,2.127,2.507,3.761a1.263,1.263,0,0,1-1.254,1.406,2.026,2.026,0,0,1-.987-.38c-1.444-.912-2.811-1.71-7.219-1.71-3,0-3.305.342-3.305,1.406v5.205c0,.95.493,1.178,1.747,1.178,6.041,0,5.928-.8,6.953-.8.912,0,1.33.684,1.33,2.355,0,1.634-.418,2.318-1.33,2.318-.949,0-1.1-.8-6.877-.8-1.33,0-1.823.341-1.823,1.405v5.738c0,1.215.38,1.595,3.685,1.595,4.939,0,6.155-.874,7.637-1.9a1.679,1.679,0,0,1,.911-.379,1.25,1.25,0,0,1,1.292,1.405c0,1.786-1.329,3.99-2.7,3.99-1.027,0-2.546-.114-10.943-.114-1.026,0-2.2.114-3.153.114A1.378,1.378,0,0,1,279.511,200.013Z"/><path class="cls-2" d="M171.9,214.936c-.19,0-.35.01-.58.02-.66.04-1.88.12-6.02.12-.32,0-.64-.02-.97-.04s-.65-.03-.98-.03a.611.611,0,0,0-.66.68,3.137,3.137,0,0,0,.08.5,9.9,9.9,0,0,1,.23,2.19v8.96a10.123,10.123,0,0,1-.23,2.21,2.171,2.171,0,0,0-.08.47c0,.25,0,.71,1.41.71,1.57,0,1.57-.46,1.57-.71a1.63,1.63,0,0,0-.12-.44,6.431,6.431,0,0,1-.38-2.24v-2.79c0-.89.46-1.07,1.26-1.07h.24a10.5,10.5,0,0,1,3.89.42.952.952,0,0,0,.38.09c.21,0,.56,0,.56-1.22s-.35-1.23-.56-1.23a1.178,1.178,0,0,0-.37.08,11.39,11.39,0,0,1-3.93.42h-.21c-.82,0-1.26-.18-1.26-1.16v-3.31c0-1.09.6-1.19,2.34-1.19,2.94,0,3.84.57,4.71,1.12a1.138,1.138,0,0,0,.49.2c.32,0,.52-.25.52-.64C173.229,216.126,172.589,214.936,171.9,214.936Z"/><path class="cls-2" d="M190.279,229.466a9.342,9.342,0,0,1-1.02-2.05l-4.42-11.78c-.16-.44-.33-.63-1.33-.63-.97,0-1.23.12-1.42.62l-4.41,11.79a9.407,9.407,0,0,1-1.02,2.04c-.18.29-.26.42-.26.56,0,.45.08.71,1.23.71,1.32,0,1.41-.26,1.41-.71a1.446,1.446,0,0,0-.06-.33,2.44,2.44,0,0,1-.11-.7,8.572,8.572,0,0,1,.67-2.4.821.821,0,0,1,.9-.66h5.33a.744.744,0,0,1,.77.52,12.287,12.287,0,0,1,.71,2.54,2.44,2.44,0,0,1-.11.7,1.051,1.051,0,0,0-.06.33c0,.54.08.71,1.74.71,1.58,0,1.72-.18,1.72-.71C190.539,229.876,190.459,229.746,190.279,229.466Zm-5.35-5.01h-3.79c-.45,0-.61-.27-.61-.53a17.76,17.76,0,0,1,1.07-3.09c1.08-2.92,1.1-2.97,1.44-2.97.29,0,.36,0,1.43,2.82,1.02,2.77,1.09,2.98,1.09,3.21C185.559,224.066,185.5,224.456,184.929,224.456Z"/><path class="cls-2" d="M209.169,229.336c-1,0-1.37-.94-1.97-3.09-.45-1.63-1.07-2.5-2-2.83-.11-.04-.41-.15-.41-.45s.3-.42.41-.45a3.672,3.672,0,0,0,2.62-3.39c0-2.81-1.76-4.12-5.54-4.12-.51,0-.99.02-1.48.03-.8.03-1.65.05-2.49,0-.31-.01-.61-.03-.9-.03a.611.611,0,0,0-.66.68,2.3,2.3,0,0,0,.08.5,9.9,9.9,0,0,1,.23,2.19v8.96a9.374,9.374,0,0,1-.24,2.21,2.8,2.8,0,0,0-.07.47c0,.25,0,.71,1.4.71,1.58,0,1.58-.46,1.58-.71a1.63,1.63,0,0,0-.12-.44,6.376,6.376,0,0,1-.39-2.24v-2.53c0-.8.54-.96,1.41-.96,2.99,0,3.68.59,4.63,3.97.8,2.85,1.76,3.08,2.76,3.08.85,0,1.52-.51,1.52-1.16C209.539,229.426,209.449,229.336,209.169,229.336Zm-7.94-6.96c-1.1,0-2.01-.08-2.01-.97v-3.36c0-1.46.48-1.6,2.73-1.6,2.39,0,3.51.89,3.51,2.8C205.459,220.666,204.729,222.376,201.229,222.376Z"/><path class="cls-2" d="M230.949,227.336v-8.96a9.029,9.029,0,0,1,.25-2.19,2.539,2.539,0,0,0,.09-.5c0-.27,0-.68-1.53-.68-1.4,0-1.57.09-1.76.54l-3.7,7.86c-.26.58-.37.81-.68.81s-.44-.25-.71-.81l-3.7-7.85c-.21-.45-.4-.55-1.98-.55-1.5,0-1.5.46-1.5.68a3.137,3.137,0,0,0,.08.5,9.9,9.9,0,0,1,.23,2.19v8.96a10.123,10.123,0,0,1-.23,2.21,2.171,2.171,0,0,0-.08.47c0,.22,0,.71,1.14.71,1.17,0,1.17-.51,1.17-.71a1.63,1.63,0,0,0-.12-.44,6.431,6.431,0,0,1-.38-2.24v-7.28c0-.69.03-1.26.44-1.26.33,0,.53.25.99,1.25l3.31,7.13a.855.855,0,0,0,.88.63.892.892,0,0,0,.88-.62l3.29-6.99c.51-1.1.65-1.4,1.04-1.4.42,0,.42.52.42,1.24v7.3a6.149,6.149,0,0,1-.39,2.24,2.127,2.127,0,0,0-.12.44c0,.25,0,.71,1.58.71,1.43,0,1.43-.48,1.43-.71a3.257,3.257,0,0,0-.08-.47A9.024,9.024,0,0,1,230.949,227.336Z"/><path class="cls-2" d="M171.779,154.116c-2.45-.61-3.41-1.4-3.41-2.84a2.666,2.666,0,0,1,2.94-2.53,4.022,4.022,0,0,1,3.5,1.77,1.43,1.43,0,0,0,1.18.65.538.538,0,0,0,.57-.61,4.744,4.744,0,0,0-.55-1.95c-.29-.59-.64-.92-.96-.92a1.939,1.939,0,0,0-.4.06,2.323,2.323,0,0,1-1.18-.09,8.107,8.107,0,0,0-2.16-.35c-2.85,0-5.01,1.88-5.01,4.38,0,2.31,1.38,3.64,4.59,4.46,2.96.73,4.01,1.32,4.01,3.15,0,1.53-1.36,2.6-3.3,2.6a4.454,4.454,0,0,1-3.8-2.04c-.4-.5-.67-.72-1.19-.72a.52.52,0,0,0-.59.59,5.668,5.668,0,0,0,.57,2.03c.32.65.62.96.95.96a1.756,1.756,0,0,0,.4-.06,2.121,2.121,0,0,1,.44-.06,2.5,2.5,0,0,1,.74.21,6.587,6.587,0,0,0,2.48.56c3.06,0,5.36-1.9,5.36-4.41C176.959,156.306,175.659,155.076,171.779,154.116Z"/><path class="cls-2" d="M193.969,160.286a.9.9,0,0,0-.44.2c-.97.67-1.79,1.24-4.96,1.24-1.94,0-2.58-.18-2.58-1.26v-3.62c0-1,.67-1.14,1.4-1.14a11.753,11.753,0,0,1,3.93.41,1.221,1.221,0,0,0,.41.09c.21,0,.6,0,.6-1.21,0-1.24-.39-1.24-.6-1.24a1.129,1.129,0,0,0-.41.09,11.075,11.075,0,0,1-3.98.42c-.65,0-1.35-.08-1.35-1v-3.29c0-.98.55-1.13,2.34-1.13,2.92,0,3.82.56,4.69,1.11a1.061,1.061,0,0,0,.49.21c.33,0,.54-.25.54-.64,0-.91-.66-2.13-1.33-2.13-.18,0-.36.01-.62.03-.77.04-2.18.12-5.98.12-.32,0-.64-.02-.97-.04s-.65-.04-.98-.04a.614.614,0,0,0-.66.69,3.319,3.319,0,0,0,.08.5,9.818,9.818,0,0,1,.23,2.19v8.95a10.155,10.155,0,0,1-.23,2.22,2.171,2.171,0,0,0-.08.47.625.625,0,0,0,.66.71c.29,0,.62-.02.95-.04.35-.01.71-.03,1.05-.03,3.93,0,5.46.04,6.28.06.28,0,.46.01.63.01.67,0,1.45-1.23,1.45-2.27C194.529,160.686,194.459,160.286,193.969,160.286Z"/><path class="cls-2" d="M210.889,160.266a.779.779,0,0,0-.43.21l-.18.12c-.86.58-1.67,1.13-4.31,1.13-2.12,0-2.61-.3-2.61-1.62v-9.26a6.019,6.019,0,0,1,.39-2.22,2.139,2.139,0,0,0,.12-.47c0-.22,0-.69-1.58-.69-1.4,0-1.4.47-1.4.69a2.388,2.388,0,0,0,.08.5,9.818,9.818,0,0,1,.23,2.19v8.95a9.818,9.818,0,0,1-.23,2.19,2.388,2.388,0,0,0-.08.5.625.625,0,0,0,.66.71c.29,0,.62-.02.96-.04.36-.01.72-.03,1.06-.03,3.53,0,4.99.04,5.78.06.28,0,.48.01.65.01.68,0,1.45-1.22,1.45-2.29C211.449,160.506,211.239,160.266,210.889,160.266Z"/><path class="cls-2" d="M226.919,147.4c-.2,0-.35.01-.58.03-.66.04-1.88.12-6.02.12-.32,0-.64-.02-.97-.04s-.65-.04-.98-.04a.614.614,0,0,0-.66.69,3.319,3.319,0,0,0,.08.5,9.818,9.818,0,0,1,.23,2.19v8.95a10.155,10.155,0,0,1-.23,2.22,2.171,2.171,0,0,0-.08.47c0,.25,0,.71,1.41.71,1.57,0,1.57-.46,1.57-.71a1.542,1.542,0,0,0-.12-.44,6.55,6.55,0,0,1-.38-2.25v-2.78c0-.9.46-1.07,1.26-1.07h.24a10.255,10.255,0,0,1,3.89.42,1.127,1.127,0,0,0,.38.08c.21,0,.56,0,.56-1.21,0-1.24-.35-1.24-.56-1.24a.988.988,0,0,0-.37.09,11.686,11.686,0,0,1-3.93.42h-.21c-.82,0-1.26-.19-1.26-1.17v-3.31c0-1.09.6-1.18,2.34-1.18,2.94,0,3.84.56,4.71,1.11a1.061,1.061,0,0,0,.49.21c.32,0,.52-.25.52-.64C228.249,148.6,227.609,147.4,226.919,147.4Z"/></svg>